<svg width="128" height="128" viewBox="0 0 128 128" fill="none" xmlns="http://www.w3.org/2000/svg">
<g clip-path="url(#clip0_1_5)">
<path d="M64 128C99.3467 128 128 99.3467 128 64C128 28.6533 99.3467 0 64 0C28.6533 0 0 28.6533 0 64C0 99.3467 28.6533 128 64 128ZM58.6667 97.3333V51.8347H69.3333V97.3333H58.6667ZM64 30.6667C66.9493 30.6667 69.3333 33.056 69.3333 36C69.3333 38.944 66.9467 41.3333 64 41.3333C61.0587 41.3333 58.6667 38.944 58.6667 36C58.6667 33.056 61.056 30.6667 64 30.6667Z" fill="#13B6EC"/>
</g>
<defs>
<clipPath id="clip0_1_5">
<rect width="128" height="128" fill="white"/>
</clipPath>
</defs>
</svg>
