<svg width="30" height="30" viewBox="0 0 30 30" fill="none" xmlns="http://www.w3.org/2000/svg">
<path d="M15 4C8.97391 4 4 8.97391 4 15C4 17.2957 4.66957 19.4 5.91304 21.2174L4.66957 24.9478C4.57391 25.1391 4.66957 25.3304 4.76522 25.4261C4.95652 25.5217 5.14783 25.6174 5.33913 25.5217L9.16522 24.2783C10.887 25.4261 12.9913 26 15 26C21.0261 26 26 21.0261 26 15C26 8.97391 21.0261 4 15 4ZM21.6 19.4957C21.313 20.3565 20.1652 21.1217 19.2087 21.313C19.0174 21.313 18.8261 21.4087 18.5391 21.4087C17.7739 21.4087 16.8174 21.1217 15.287 20.5478C13.3739 19.7826 11.4609 18.0609 9.93043 15.8609L9.83478 15.7652C9.26087 15 8.4 13.6609 8.4 12.2261C8.4 10.6 9.26087 9.73913 9.54783 9.35652C9.93044 8.97391 10.4087 8.78261 10.9826 8.78261C11.0783 8.78261 11.1739 8.78261 11.2696 8.78261H11.3652C11.8435 8.78261 12.1304 8.97391 12.4174 9.54783L12.6087 9.93043C12.8957 10.6 13.2783 11.6522 13.3739 11.8435C13.5652 12.2261 13.5652 12.513 13.3739 12.8C13.2783 12.9913 13.1826 13.1826 12.9913 13.3739C12.8957 13.4696 12.8 13.5652 12.8 13.6609C12.7043 13.7565 12.6087 13.8522 12.513 13.9478C12.513 14.0435 12.513 14.0435 12.513 14.0435C12.8 14.5217 13.3739 15.3826 14.1391 16.0522C15.1913 17.0087 15.9565 17.2957 16.3391 17.487H16.4348C16.5304 17.487 16.6261 17.5826 16.6261 17.487C16.8174 17.2957 17.0087 16.913 17.2957 16.6261L17.3913 16.5304C17.6783 16.1478 18.0609 16.0522 18.2522 16.0522C18.3478 16.0522 18.5391 16.0522 18.6348 16.1478C18.7304 16.1478 18.9217 16.2435 20.7391 17.2L20.9304 17.2957C21.2174 17.3913 21.4087 17.487 21.5043 17.7739C21.887 17.9652 21.7913 18.8261 21.6 19.4957Z" fill="white"/>
</svg>
