<svg width="128" height="128" viewBox="0 0 128 128" fill="none" xmlns="http://www.w3.org/2000/svg">
<g clip-path="url(#clip0_1_2)">
<path d="M64 0C28.6533 0 0 28.6533 0 64C0 99.3467 28.6533 128 64 128C99.3467 128 128 99.3467 128 64C128 28.6533 99.3467 0 64 0ZM81.672 61.2187L56.232 86.6587L56.2187 86.6453L54.8027 88.056L54.784 88.04L54.7653 88.056L51.592 84.888L51.6107 84.8667L30.92 64.176L36.7733 58.3227L54.8213 76.376L75.8213 55.3733L75.7973 55.3493L91.2 39.944L97.0693 45.816L81.672 61.2187Z" fill="#13EC5F"/>
</g>
<defs>
<clipPath id="clip0_1_2">
<rect width="128" height="128" fill="white"/>
</clipPath>
</defs>
</svg>
