<svg width="128" height="128" viewBox="0 0 128 128" fill="none" xmlns="http://www.w3.org/2000/svg">
<g clip-path="url(#clip0_1_7)">
<path d="M64 0C28.6533 0 0 28.6533 0 64C0 99.3467 28.6533 128 64 128C99.3467 128 128 99.3467 128 64C128 28.6533 99.3467 0 64 0ZM67.3893 93.704C66.1067 94.9733 64.32 95.6053 62.0267 95.6053C59.6827 95.6053 57.8693 94.9893 56.5867 93.7467C55.304 92.5013 54.6587 90.752 54.6587 88.4907C54.6587 86.1467 55.288 84.376 56.544 83.1733C57.8 81.976 59.6267 81.376 62.0267 81.376C64.344 81.376 66.136 81.9867 67.4107 83.2133C68.68 84.4427 69.3147 86.2 69.3147 88.4907C69.3147 90.6933 68.6747 92.4293 67.3893 93.704ZM81.2027 55.544C79.808 57.776 77.1547 60.288 73.2507 63.08C70.5707 65.0613 68.8747 66.568 68.168 67.6C67.4533 68.6373 67.1013 69.9893 67.1013 71.6613V74.1707H56.0107V71.072C56.0107 68.3947 56.5813 66.0613 57.728 64.0827C58.872 62.1013 60.9653 59.9947 64.0053 57.7627C66.936 55.6693 68.8667 53.968 69.8027 52.656C70.7387 51.344 71.2027 49.8773 71.2027 48.2613C71.2027 46.448 70.5333 45.0667 69.1947 44.1173C67.856 43.168 65.9867 42.6933 63.584 42.6933C59.4 42.6933 54.6267 44.0613 49.2693 46.7973L44.7067 37.6293C50.928 34.1413 57.5307 32.3973 64.5067 32.3973C70.2533 32.3973 74.8267 33.7787 78.216 36.5413C81.6053 39.304 83.2987 42.9867 83.2987 47.592C83.296 50.6613 82.6 53.312 81.2027 55.544Z" fill="#ECC813"/>
</g>
<defs>
<clipPath id="clip0_1_7">
<rect width="128" height="128" fill="white"/>
</clipPath>
</defs>
</svg>
