<svg width="30" height="30" viewBox="0 0 30 30" fill="none" xmlns="http://www.w3.org/2000/svg">
<path fill-rule="evenodd" clip-rule="evenodd" d="M24.6213 5.25803C24.9259 5.51959 25.0616 5.93064 24.9736 6.32487L21.2175 23.1534C21.1355 23.5205 20.8716 23.8184 20.52 23.9409C20.1683 24.0633 19.779 23.9929 19.4911 23.7546L14.5827 19.6917L12.5235 23.4415C12.3127 23.8254 11.8941 24.043 11.4629 23.9929C11.0316 23.9428 10.6727 23.6348 10.5535 23.2126L8.58691 16.2491L3.86273 15.2933C3.39794 15.1991 3.04919 14.8078 3.00475 14.3303C2.96033 13.8529 3.23074 13.4026 3.67 13.2224L23.5235 5.07956C23.8938 4.92771 24.3167 4.99648 24.6213 5.25803ZM7.79371 13.8742L9.64949 14.2497C10.0435 14.3294 10.3605 14.6251 10.4709 15.0161L11.9055 20.0957L13.3302 17.5013C13.4846 17.2201 13.7543 17.0227 14.0667 16.9622C14.379 16.9017 14.7017 16.9846 14.9479 17.1883L19.5064 20.9616L22.4278 7.87203L7.79371 13.8742Z" fill="white"/>
<path fill-rule="evenodd" clip-rule="evenodd" d="M24.4984 7.11015C24.969 6.79468 25.1353 6.14878 24.8817 5.62187C24.6282 5.09494 24.0387 4.86148 23.5234 5.08393L3.67 13.6553C3.23074 13.8449 2.96033 14.3189 3.00475 14.8214C3.04919 15.324 3.39794 15.736 3.86273 15.835L9.22853 16.9778C9.49813 17.0352 9.77813 16.9802 10.0108 16.8242L24.4984 7.11015Z" fill="white"/>
<path fill-rule="evenodd" clip-rule="evenodd" d="M24.9731 6.32491C25.0845 5.83375 24.842 5.33078 24.3873 5.11C23.9326 4.88921 23.3851 5.00856 23.0647 5.39826L13.2467 17.3411C12.8651 17.8051 12.9338 18.4891 13.4002 18.8689L19.4001 23.7546C19.6927 23.9928 20.0884 24.0634 20.4459 23.9409C20.8034 23.8184 21.0717 23.5204 21.155 23.1534L24.9731 6.32491Z" fill="white"/>
</svg>
