<svg width="29" height="18" viewBox="0 0 29 18" fill="none" xmlns="http://www.w3.org/2000/svg">
<path fill-rule="evenodd" clip-rule="evenodd" d="M28.2129 1.67188C28.4215 1.01094 28.2129 0.530469 27.29 0.530469H24.2215C23.4475 0.530469 23.09 0.951172 22.8814 1.40117C22.8814 1.40117 21.3029 5.24492 19.0986 7.73691C18.3838 8.45762 18.0563 8.69785 17.6689 8.69785C17.4604 8.69785 17.192 8.45762 17.192 7.79727V1.64082C17.192 0.860352 16.9541 0.5 16.2984 0.5H11.4727C10.9957 0.5 10.698 0.860352 10.698 1.2207C10.698 1.97129 11.8002 2.15176 11.9191 4.25352V8.82031C11.9191 9.81113 11.7434 9.99219 11.3531 9.99219C10.3107 9.99219 7.77891 6.11855 6.26016 1.70469C5.96484 0.830469 5.66484 0.5 4.89023 0.5H1.79238C0.898828 0.5 0.75 0.920117 0.75 1.3707C0.75 2.18164 1.79238 6.26504 5.60508 11.6697C8.13691 15.3611 11.741 17.3451 14.9877 17.3451C16.9541 17.3451 17.192 16.8945 17.192 16.1439V13.3514C17.192 12.4508 17.3707 12.3008 17.9965 12.3008C18.443 12.3008 19.2475 12.5404 21.0645 14.3123C23.1492 16.4141 23.5066 17.375 24.6686 17.375H27.7365C28.6301 17.375 29.0473 16.9244 28.8088 16.0537C28.541 15.183 27.5279 13.9221 26.2172 12.4209C25.5023 11.5807 24.4301 10.6496 24.1025 10.199C23.6561 9.59844 23.775 9.3582 24.1025 8.81797C24.0727 8.81797 27.8262 3.47305 28.2129 1.66953" fill="white"/>
</svg>
